# xmcd CD database file
#
# Track frame offsets:
#	150
#	15021
#	29742
#	48200
#	62845
#	82123
#	99540
#	116500
#	133184
#	151045
#
# Disc length: 2231 seconds
#
# Revision: 0
# Processed by: cddbd v1.5.2PL0 Copyright (c) Steve Scherf et al.
# Submitted via: CDex 1.70beta2
#
DISCID=7708b50a
DTITLE=Starlite Orchestra - Golden Sax Favorites (disk 2)
DYEAR=2006
DGENRE=Jazz
TTITLE0=Woman
TTITLE1=Midnight Angel
TTITLE2=Lately
TTITLE3=A Little Love
TTITLE4=Hello Again
TTITLE5=What Kind of Fool
TTITLE6=The Rose
TTITLE7=Magic
TTITLE8=Guilty
TTITLE9=Sweet Caroline
EXTD=YEAR: 2006
EXTT0=
EXTT1=
EXTT2=
EXTT3=
EXTT4=
EXTT5=
EXTT6=
EXTT7=
EXTT8=
EXTT9=
PLAYORDER=
